<svg width="28" height="28" viewBox="0 0 28 28" fill="none" xmlns="http://www.w3.org/2000/svg">
<g opacity="0.8">
<path d="M25.1278 9.41147C25.1142 8.47141 24.94 7.5388 24.6067 6.65959C24.0233 5.15823 22.8354 3.97104 21.3315 3.38987C20.462 3.06327 19.5428 2.88817 18.6123 2.8683C17.4157 2.81491 17.0363 2.8 13.9987 2.8C10.9612 2.8 10.5718 2.8 9.38391 2.8683C8.45472 2.88817 7.53548 3.06327 6.666 3.38987C5.16214 3.97104 3.97298 5.15823 3.39084 6.65959C3.06369 7.52762 2.88706 8.44533 2.86965 9.37297C2.81616 10.5688 2.79999 10.9476 2.79999 13.9801C2.79999 17.0127 2.79999 17.4001 2.86965 18.5873C2.8883 19.5162 3.06369 20.4326 3.39084 21.3032C3.97422 22.8033 5.16214 23.9905 6.66725 24.5716C7.533 24.9094 8.45223 25.1007 9.38515 25.1305C10.583 25.1839 10.9624 25.2 14 25.2C17.0376 25.2 17.4269 25.2 18.6148 25.1305C19.544 25.1118 20.4632 24.9367 21.334 24.6101C22.8378 24.0277 24.0258 22.8405 24.6091 21.3404C24.9363 20.4711 25.1117 19.5547 25.1303 18.6246C25.1838 17.4299 25.2 17.0512 25.2 14.0174C25.1975 10.9849 25.1975 10.5999 25.1278 9.41147ZM13.9913 19.7149C10.8144 19.7149 8.24077 17.1455 8.24077 13.9739C8.24077 10.8023 10.8144 8.23298 13.9913 8.23298C17.1657 8.23298 19.7418 10.8023 19.7418 13.9739C19.7418 17.1455 17.1657 19.7149 13.9913 19.7149ZM19.9707 9.35931C19.2281 9.35931 18.6298 8.76075 18.6298 8.02063C18.6298 7.2805 19.2281 6.68194 19.9707 6.68194C20.7108 6.68194 21.3103 7.2805 21.3103 8.02063C21.3103 8.76075 20.7108 9.35931 19.9707 9.35931Z" fill="#121417"/>
<path d="M13.9931 17.479C15.928 17.479 17.4966 15.9104 17.4966 13.9755C17.4966 12.0405 15.928 10.472 13.9931 10.472C12.0581 10.472 10.4896 12.0405 10.4896 13.9755C10.4896 15.9104 12.0581 17.479 13.9931 17.479Z" fill="#121417"/>
</g>
</svg>
