<svg width="24" height="24" viewBox="0 0 24 24" fill="none" xmlns="http://www.w3.org/2000/svg">
<path d="M12.71 13.4001C12.6171 13.4938 12.5065 13.5682 12.3846 13.619C12.2627 13.6698 12.132 13.6959 12 13.6959C11.868 13.6959 11.7373 13.6698 11.6154 13.619C11.4936 13.5682 11.383 13.4938 11.29 13.4001L6.71002 8.81009C6.61705 8.71637 6.50645 8.64197 6.38459 8.5912C6.26273 8.54043 6.13203 8.5143 6.00002 8.5143C5.868 8.5143 5.7373 8.54043 5.61544 8.5912C5.49358 8.64197 5.38298 8.71637 5.29001 8.81009C5.10376 8.99746 4.99922 9.25091 4.99922 9.51509C4.99922 9.77928 5.10376 10.0327 5.29001 10.2201L9.88002 14.8101C10.4425 15.3719 11.205 15.6875 12 15.6875C12.795 15.6875 13.5575 15.3719 14.12 14.8101L18.71 10.2201C18.8948 10.0338 18.9989 9.78243 19 9.52009C19.0008 9.38849 18.9756 9.25802 18.9258 9.13619C18.876 9.01435 18.8027 8.90353 18.71 8.81009C18.6171 8.71637 18.5065 8.64197 18.3846 8.5912C18.2627 8.54043 18.132 8.5143 18 8.5143C17.868 8.5143 17.7373 8.54043 17.6155 8.5912C17.4936 8.64197 17.383 8.71637 17.29 8.81009L12.71 13.4001Z" fill="white"/>
</svg>
